<?xml version="1.0" standalone="no"?>
<!DOCTYPE svg PUBLIC "-//W3C//DTD SVG 20010904//EN"
 "http://www.w3.org/TR/2001/REC-SVG-20010904/DTD/svg10.dtd">
<svg version="1.0" xmlns="http://www.w3.org/2000/svg"
 width="330.000000pt" height="380.000000pt" viewBox="0 0 330.000000 380.000000"
 preserveAspectRatio="xMidYMid meet">

<g transform="translate(0.000000,380.000000) scale(0.100000,-0.100000)"
fill="#000000" stroke="none">
<path d="M1635 3705 c-11 -7 -67 -40 -125 -73 l-104 -61 57 -26 c108 -47 251
-51 359 -8 89 35 89 34 -24 98 -57 32 -112 64 -123 71 -16 10 -24 10 -40 -1z"/>
<path d="M705 3170 l-640 -369 -3 -914 -2 -915 647 -372 648 -372 61 31 c161
80 322 82 478 5 l70 -34 640 369 641 368 0 919 0 918 -415 238 c-228 132 -517
298 -643 370 l-227 130 -73 -35 c-39 -19 -96 -40 -125 -46 -116 -24 -251 -5
-351 49 -30 17 -57 30 -60 29 -3 0 -294 -166 -646 -369z m1324 -106 c207 -119
378 -218 379 -220 9 -7 -33 -231 -68 -369 -74 -293 -209 -600 -371 -844 l-81
-123 -30 29 c-16 15 -57 61 -89 102 -57 69 -59 75 -45 95 55 77 166 274 212
378 96 212 203 573 179 597 -6 5 -113 69 -238 141 l-229 132 -239 -138 c-131
-75 -239 -140 -239 -143 0 -4 13 -60 29 -126 127 -518 392 -958 773 -1286 l70
-60 31 43 c17 24 57 85 88 135 l56 93 82 -110 c44 -60 81 -114 81 -120 0 -16
-126 -199 -207 -300 -101 -127 -284 -306 -408 -398 -60 -45 -113 -82 -117 -82
-4 0 -53 35 -110 77 -200 150 -409 374 -564 605 l-66 97 61 83 c81 111 111
145 117 132 3 -7 41 -67 85 -134 73 -111 81 -121 97 -108 9 8 41 35 71 61 29
26 56 47 60 47 3 0 44 -43 90 -96 l84 -96 -49 -41 c-27 -23 -61 -53 -77 -67
l-29 -25 111 -108 c60 -59 114 -107 119 -107 14 0 222 200 222 214 0 6 -21 28
-47 48 -68 52 -242 226 -322 322 -218 263 -387 572 -500 916 -55 170 -118 465
-109 518 2 18 79 66 373 236 204 118 374 215 379 215 5 1 178 -96 385 -215z
m-1214 -429 c9 -49 18 -97 20 -105 3 -10 -14 -25 -50 -45 -39 -21 -55 -35 -55
-50 0 -28 51 -218 95 -353 l36 -113 -92 -115 c-74 -92 -94 -113 -101 -100 -23
41 -94 245 -134 386 -49 170 -108 443 -96 448 4 1 84 47 177 101 l170 99 7
-31 c3 -18 14 -72 23 -122z m1877 48 l169 -98 -6 -45 c-12 -83 -67 -314 -101
-427 -47 -156 -126 -374 -135 -371 -4 2 -47 54 -97 115 l-89 113 34 102 c44
130 105 367 98 378 -3 5 -28 21 -56 37 -44 23 -50 30 -46 53 3 14 13 73 23
132 11 60 23 108 27 108 5 0 85 -44 179 -97z m-911 -181 c68 -60 130 -116 137
-124 10 -13 4 -36 -37 -138 -27 -67 -52 -125 -55 -128 -3 -3 -44 32 -91 77
l-86 83 -86 -82 c-53 -51 -88 -79 -94 -73 -11 11 -99 223 -99 238 0 21 253
254 276 255 7 0 68 -49 135 -108z m-730 -876 c-49 -61 -127 -164 -175 -229
l-88 -118 28 -47 c41 -71 150 -228 211 -304 30 -38 49 -68 44 -68 -24 0 -154
55 -250 106 -118 62 -214 126 -314 209 l-67 57 76 111 c109 158 288 397 400
532 l95 115 64 -127 64 -127 -88 -110z m1340 234 c122 -149 275 -354 378 -504
95 -139 99 -118 -44 -228 -98 -76 -235 -161 -330 -203 -103 -46 -188 -76 -178
-63 5 7 35 45 65 83 87 109 218 310 218 333 0 12 -160 229 -261 354 -44 54
-79 100 -79 104 0 18 124 254 130 247 4 -4 50 -60 101 -123z"/>
<path d="M1580 259 c-30 -5 -79 -21 -110 -35 -52 -24 -54 -26 -35 -40 33 -24
212 -124 223 -124 6 0 63 30 126 67 131 75 132 78 31 112 -76 25 -164 32 -235
20z"/>
</g>
</svg>
