<?xml version="1.0" standalone="no"?>
<!DOCTYPE svg PUBLIC "-//W3C//DTD SVG 20010904//EN"
 "http://www.w3.org/TR/2001/REC-SVG-20010904/DTD/svg10.dtd">
<svg version="1.0" xmlns="http://www.w3.org/2000/svg"
 width="330.000000pt" height="380.000000pt" viewBox="0 0 330.000000 380.000000"
 preserveAspectRatio="xMidYMid meet">

<g transform="translate(0.000000,380.000000) scale(0.100000,-0.100000)"
fill="#000000" stroke="none">
<path d="M1518 3642 c-133 -76 -133 -75 -20 -113 88 -29 203 -29 291 1 117 39
117 38 -14 114 -63 36 -121 66 -128 66 -6 0 -65 -31 -129 -68z"/>
<path d="M695 3170 l-640 -369 -3 -914 -2 -915 647 -371 647 -372 76 35 c90
42 144 55 227 56 87 0 157 -16 237 -56 l70 -34 640 369 641 368 0 918 0 919
-380 218 c-209 121 -498 287 -642 370 l-263 150 -72 -35 c-40 -19 -97 -40
-126 -46 -116 -24 -251 -5 -351 49 -30 17 -57 30 -60 29 -3 0 -294 -166 -646
-369z"/>
<path d="M1570 259 c-30 -5 -79 -21 -110 -35 -52 -24 -54 -26 -35 -40 32 -24
212 -124 223 -124 5 0 62 30 126 66 133 76 134 81 31 113 -80 25 -165 32 -235
20z"/>
</g>
</svg>
