<?xml version="1.0" standalone="no"?>
<!DOCTYPE svg PUBLIC "-//W3C//DTD SVG 20010904//EN"
 "http://www.w3.org/TR/2001/REC-SVG-20010904/DTD/svg10.dtd">
<svg version="1.0" xmlns="http://www.w3.org/2000/svg"
 width="330.000000pt" height="380.000000pt" viewBox="0 0 330.000000 380.000000"
 preserveAspectRatio="xMidYMid meet">

<g transform="translate(0.000000,380.000000) scale(0.100000,-0.100000)"
fill="#000000" stroke="none">
<path d="M1532 3657 c-139 -82 -140 -82 -19 -119 102 -31 238 -23 327 18 l64
30 -119 68 c-66 38 -122 70 -125 71 -3 2 -60 -29 -128 -68z"/>
<path d="M1918 3534 c-137 -87 -336 -95 -496 -18 l-73 35 -642 -369 -642 -370
-3 -914 -2 -914 642 -369 c354 -203 646 -370 649 -372 4 -1 33 11 65 27 156
81 344 80 492 0 l54 -29 642 369 641 368 2 919 2 918 -611 350 c-336 193 -627
360 -647 371 l-36 22 -37 -24z"/>
<path d="M1590 273 c-43 -7 -150 -46 -161 -59 -7 -9 21 -30 105 -78 64 -36
119 -66 123 -66 12 0 243 134 243 141 0 11 -101 48 -159 59 -53 10 -103 11
-151 3z"/>
</g>
</svg>
