<?xml version="1.0" standalone="no"?>
<!DOCTYPE svg PUBLIC "-//W3C//DTD SVG 20010904//EN"
 "http://www.w3.org/TR/2001/REC-SVG-20010904/DTD/svg10.dtd">
<svg version="1.0" xmlns="http://www.w3.org/2000/svg"
 width="330.000000pt" height="380.000000pt" viewBox="0 0 330.000000 380.000000"
 preserveAspectRatio="xMidYMid meet">

<g transform="translate(0.000000,380.000000) scale(0.100000,-0.100000)"
fill="#000000" stroke="none">
<path d="M1515 3654 c-60 -36 -111 -67 -114 -69 -2 -3 23 -17 55 -32 54 -26
69 -28 179 -28 105 0 127 3 180 25 33 14 59 30 58 35 -2 13 -213 135 -233 134
-8 0 -64 -30 -125 -65z"/>
<path d="M692 3179 l-642 -371 2 -915 3 -915 642 -370 642 -369 60 31 c160 80
331 81 489 1 l59 -30 639 368 639 367 2 920 3 919 -626 360 c-344 198 -635
364 -645 369 -14 7 -30 3 -59 -13 -155 -87 -344 -91 -502 -11 -32 17 -60 30
-61 30 -1 0 -291 -167 -645 -371z"/>
<path d="M1538 264 c-55 -13 -144 -52 -136 -59 10 -9 230 -135 237 -135 14 0
241 132 241 140 0 11 -88 46 -148 59 -68 14 -123 13 -194 -5z"/>
</g>
</svg>
