<?xml version="1.0" standalone="no"?>
<!DOCTYPE svg PUBLIC "-//W3C//DTD SVG 20010904//EN"
 "http://www.w3.org/TR/2001/REC-SVG-20010904/DTD/svg10.dtd">
<svg version="1.0" xmlns="http://www.w3.org/2000/svg"
 width="330.000000pt" height="380.000000pt" viewBox="0 0 330.000000 380.000000"
 preserveAspectRatio="xMidYMid meet">

<g transform="translate(0.000000,380.000000) scale(0.100000,-0.100000)"
fill="#000000" stroke="none">
<path d="M1512 3643 c-129 -75 -130 -78 -22 -113 94 -30 236 -25 325 11 33 13
59 28 58 33 -1 13 -214 136 -233 135 -8 0 -66 -30 -128 -66z"/>
<path d="M688 3172 l-638 -367 0 -915 0 -915 626 -360 c345 -198 635 -364 645
-369 14 -6 36 0 82 22 73 36 172 62 237 62 70 0 175 -26 244 -60 l64 -32 641
368 641 367 0 916 0 916 -627 360 c-346 197 -635 363 -645 369 -12 7 -31 2
-76 -22 -151 -81 -329 -81 -486 -2 -32 17 -62 30 -65 29 -3 0 -293 -166 -643
-367z"/>
<path d="M1520 257 c-25 -7 -63 -22 -84 -34 l-39 -20 69 -40 c38 -22 93 -54
122 -71 l54 -30 125 72 125 71 -64 30 c-55 25 -76 30 -163 32 -60 2 -118 -2
-145 -10z"/>
</g>
</svg>
