<?xml version="1.0" standalone="no"?>
<!DOCTYPE svg PUBLIC "-//W3C//DTD SVG 20010904//EN"
 "http://www.w3.org/TR/2001/REC-SVG-20010904/DTD/svg10.dtd">
<svg version="1.0" xmlns="http://www.w3.org/2000/svg"
 width="330.000000pt" height="380.000000pt" viewBox="0 0 330.000000 380.000000"
 preserveAspectRatio="xMidYMid meet">

<g transform="translate(0.000000,380.000000) scale(0.100000,-0.100000)"
fill="#000000" stroke="none">
<path d="M1523 3657 c-68 -39 -119 -75 -114 -80 4 -4 39 -19 77 -32 114 -40
264 -32 368 22 l38 20 -118 68 c-66 37 -121 69 -124 71 -3 1 -60 -30 -127 -69z"/>
<path d="M1883 3522 c-153 -81 -348 -78 -503 9 l-38 22 -644 -370 -643 -369 0
-913 0 -914 625 -359 c344 -198 635 -364 647 -370 19 -9 33 -5 81 20 85 45
179 65 278 59 80 -6 185 -37 238 -73 l27 -17 537 309 c295 169 585 335 644
368 l107 61 1 915 0 915 -602 345 c-331 190 -622 356 -647 371 l-46 25 -62
-34z m-303 -1253 c0 -927 -1 -981 -17 -968 -10 8 -109 101 -222 207 -112 106
-205 191 -207 189 -2 -2 47 -111 111 -242 63 -132 113 -241 111 -243 -2 -2
-135 25 -295 58 -161 34 -296 60 -300 58 -5 -2 194 -110 442 -242 l450 -238
31 15 c119 57 878 467 865 467 -8 0 -145 -27 -303 -61 -159 -33 -290 -58 -292
-56 -2 2 48 111 111 242 63 131 114 240 112 242 -2 2 -103 -89 -223 -203
l-219 -206 -3 978 c-1 537 -1 979 1 981 2 2 109 -57 238 -130 l234 -132 3
-501 2 -500 73 -41 72 -42 5 469 5 469 233 -130 232 -131 0 -175 0 -175 -55
-61 -55 -61 2 -204 3 -205 73 -40 72 -41 -2 -190 -3 -190 -600 -339 c-330
-187 -604 -339 -610 -339 -5 0 -280 152 -610 339 l-600 339 -3 190 -2 190 75
43 75 42 0 203 0 203 -55 60 -55 61 0 175 0 175 233 131 232 130 5 -469 5
-469 72 42 73 41 2 500 3 501 230 131 c127 73 233 133 238 133 4 1 7 -441 7
-980z"/>
<path d="M1595 279 c-60 -6 -170 -42 -180 -59 -5 -9 166 -115 215 -133 22 -8
41 -1 135 53 61 35 114 67 119 71 16 14 -97 59 -165 67 -35 4 -91 4 -124 1z"/>
</g>
</svg>
